<?xml version="1.0" encoding="UTF-8" standalone="no"?>
<svg
   id="flag-icons-cl"
   viewBox="0 0 640 480"
   version="1.1"
   sodipodi:docname="br-mg.svg"
   inkscape:version="1.1.2 (b8e25be8, 2022-02-05)"
   xmlns:inkscape="http://www.inkscape.org/namespaces/inkscape"
   xmlns:sodipodi="http://sodipodi.sourceforge.net/DTD/sodipodi-0.dtd"
   xmlns:xlink="http://www.w3.org/1999/xlink"
   xmlns="http://www.w3.org/2000/svg"
   xmlns:svg="http://www.w3.org/2000/svg">
  <sodipodi:namedview
     id="namedview1539"
     pagecolor="#ffffff"
     bordercolor="#666666"
     borderopacity="1.0"
     inkscape:pageshadow="2"
     inkscape:pageopacity="0.0"
     inkscape:pagecheckerboard="0"
     showgrid="false"
     inkscape:snap-page="true"
     inkscape:zoom="0.72397478"
     inkscape:cx="339.10021"
     inkscape:cy="214.78649"
     inkscape:window-width="1296"
     inkscape:window-height="969"
     inkscape:window-x="0"
     inkscape:window-y="44"
     inkscape:window-maximized="0"
     inkscape:current-layer="flag-icons-cl" />
  <defs
     id="defs1526">
    <clipPath
       id="cl-a">
      <path
         fill-opacity=".7"
         d="M0 0h682.7v512H0z"
         id="path1523" />
    </clipPath>
    <g
       id="star"
       transform="scale(75)">
      <g
         id="cone">
        <polygon
           id="triangle"
           fill="#FFEC00"
           points="0,0 0,1 .5,1"
           transform="translate(0,-1) rotate(18)" />
        <use
           xlink:href="#triangle"
           transform="scale(-1,1)"
           id="use1754" />
      </g>
      <g
         id="cone2">
        <use
           xlink:href="#cone"
           transform="rotate(72)"
           id="use1757" />
        <use
           xlink:href="#cone"
           transform="rotate(216)"
           id="use1759" />
      </g>
      <use
         xlink:href="#cone2"
         transform="rotate(72)"
         id="use1762" />
    </g>
    <style
       type="text/css"
       id="style2360"><![CDATA[
		.str0 {stroke:#373435;stroke-width:1}
		.str1 {stroke:#373435;stroke-width:5}
		.fil0 {fill:none}
		.fil1 {fill:#76C04E}
		.fil2 {fill:#373435}
		.fil3 {fill:white}
		.fil4 {fill:#FFDD21}
		.fil5 {fill:#00AFEF}
		.fil6 {fill:#A93C40}
		.fil7 {fill:#C0C2C8}
		.fil8 {fill:#EFDD00}
		.fil9 {fill:#F58634}
		.fil10 {fill:#00A859}
	]]></style>
    <path
       id="base_star"
       d="M0,-225 73.473156537,-101.12712430 213.98771617, -69.528823734 118.88206454,38.627124297 132.25168177,182.02882373 0,125 -132.25168177,182.02882373 -118.88206454,38.627124297 -213.98771617, -69.528823734 -73.473156537,-101.12712430z" />
    <clipPath
       id="shield_cut">
      <ellipse
         id="field_shield"
         fill="white"
         rx="650"
         ry="890" />
    </clipPath>
    <style
       id="style7055">
      .fil2{fill:#000}
    </style>
  </defs>
  <g
     id="g3024"
     transform="matrix(0.5,0,0,0.5,317.95239,223.73398)">
    <g
       style="clip-rule:evenodd;fill-rule:evenodd;image-rendering:optimizeQuality;shape-rendering:geometricPrecision;text-rendering:geometricPrecision"
       id="g7089"
       transform="matrix(2.1333333,0,0,2.1333333,-635.41411,-415.59595)">
      <g
         id="Camada_x0020_1">
    <g
   id="_3115381174528">
      <path
   d="m -0.23,0.06 h 600 v 420 h -600 z m 300,97.07 60,103.93 60,103.92 h -240 l 60,-103.92 z m 39.21,220.25 H 325 v 6.08 h 9.77 v 2.4 H 325 v 6.72 h 13.98 v 2.4 H 322.6 v -20 h 16.38 z m -102.21,17.6 v -17.6 h -8.15 v -2.4 h 18.7 v 2.4 h -8.15 v 17.6 z m 27.19,-17.08 -4.2,9.31 h 8.39 z m -1.32,-2.92 h 2.63 l 9.01,20 h -2.63 l -2.42,-5.37 h -10.55 l -2.42,5.37 h -2.62 z m 21.91,20 v -20 h 1.65 l 11.66,10.26 11.65,-10.26 h 1.65 v 20 h -2.4 v -16.14 l -10.9,9.6 -0.81,-0.72 -0.01,0.01 -9.61,-8.48 -0.48,-0.41 v 16.14 z m 65.35,0 v -20 h 1.68 l 16.94,16.1 v -16.1 h 2.4 v 20 h -1.77 L 352.3,318.97 v 16.01 z M 338,134.16 c -1.2,0.69 -2.38,0.72 -3.4,0.42 -0.58,-0.16 -1.1,-0.44 -1.55,-0.76 l -0.07,0.4 -2.36,-0.42 0.45,-2.45 -2.25,-3.9 c -0.42,-0.73 -0.85,-2.19 -0.54,-3.6 0.23,-1.03 0.82,-2.02 2.03,-2.72 l 10.18,-5.88 c 0.9,-0.51 1.95,-0.65 2.94,-0.36 0.9,0.26 1.73,0.86 2.29,1.83 l 3.68,6.37 0.31,0.53 -0.04,0.02 c 0.3,0.74 0.39,1.56 0.23,2.32 -0.19,0.91 -0.72,1.74 -1.67,2.29 z m -3.51,-8.23 -0.9,4.97 0.14,0.26 c 0.22,0.37 0.79,0.91 1.53,1.12 0.46,0.13 0.99,0.12 1.54,-0.2 l 10.23,-5.91 c 0.3,-0.17 0.47,-0.42 0.53,-0.7 0.07,-0.36 -0.02,-0.79 -0.23,-1.16 l -0.01,-0.02 -3.68,-6.37 c -0.23,-0.4 -0.54,-0.64 -0.88,-0.74 -0.35,-0.1 -0.73,-0.04 -1.07,0.15 l -10.18,5.88 c -0.54,0.31 -0.79,0.73 -0.89,1.16 -0.16,0.74 0.06,1.5 0.28,1.88 l 0.84,1.45 0.4,-2.2 z m 68.12,94.13 -5.76,-9.99 -5.26,3.04 3.99,6.92 -2.08,1.2 -3.99,-6.92 -5.83,3.36 5.77,9.99 -2.08,1.2 -6.97,-12.07 17.33,-10 6.96,12.07 z m 9.27,16.05 -4.42,-7.65 -5.26,3.04 4.42,7.65 c 0.18,0.31 0.52,0.53 0.89,0.64 0.39,0.11 0.78,0.1 1.04,-0.05 l 2.79,-1.61 c 0.33,-0.19 0.59,-0.5 0.7,-0.86 0.11,-0.35 0.08,-0.76 -0.15,-1.16 l -0.01,0.01 2.08,-1.21 z m 2.08,-1.2 v 0.01 c 0.59,1.02 0.66,2.1 0.37,3.05 -0.29,0.94 -0.94,1.74 -1.79,2.23 h -0.01 l -2.78,1.61 c -0.84,0.48 -1.92,0.56 -2.89,0.28 -0.94,-0.27 -1.81,-0.86 -2.32,-1.74 l -0.32,-0.56 -5.6,8.55 -1.34,-2.32 5.6,-8.55 -2.76,-4.77 -7.9,4.56 -1.2,-2.08 17.32,-10 z m 6.3,17.24 -9.71,1.32 3.71,6.42 z m -19.31,0.23 1.29,2.23 5.75,-0.79 4.68,8.12 -3.55,4.59 1.29,2.23 13.23,-17.07 -0.64,-1.12 -0.65,-1.12 z m -18.93,-51.03 -3.25,-5.63 c -0.5,-0.87 -0.62,-1.91 -0.42,-2.84 0.22,-0.98 0.78,-1.86 1.62,-2.35 l 2.99,-1.72 c 0.9,-0.52 1.95,-0.65 2.93,-0.37 0.91,0.26 1.74,0.87 2.3,1.84 l 3.68,6.36 0.3,0.54 -0.03,0.02 c 0.29,0.74 0.39,1.55 0.23,2.31 -0.19,0.92 -0.72,1.75 -1.67,2.3 l -0.28,0.16 -1.2,-2.08 0.28,-0.16 c 0.3,-0.18 0.47,-0.43 0.52,-0.7 0.08,-0.37 -0.01,-0.79 -0.22,-1.17 l -0.01,-0.02 -3.68,-6.36 c -0.23,-0.4 -0.55,-0.64 -0.88,-0.74 -0.35,-0.1 -0.73,-0.05 -1.07,0.15 l -2.99,1.72 c -0.24,0.14 -0.41,0.43 -0.48,0.77 -0.08,0.38 -0.04,0.8 0.16,1.14 l 3.25,5.63 0.03,0.06 0.02,0.01 c 0.45,0.79 0.72,1.93 0.59,3.04 -0.14,1.17 -0.7,2.33 -1.92,3.09 l -0.11,0.06 -0.01,0.02 -2.23,1.28 c -1.2,0.7 -2.38,0.72 -3.41,0.43 -1.4,-0.41 -2.51,-1.48 -2.94,-2.23 l -2.83,-4.9 c -0.42,-0.74 -0.85,-2.2 -0.54,-3.6 0.23,-1.03 0.82,-2.03 2.02,-2.72 l 0.36,-0.21 1.2,2.08 -0.36,0.21 c -0.53,0.31 -0.79,0.73 -0.88,1.16 -0.17,0.73 0.06,1.5 0.28,1.88 l 2.83,4.9 c 0.21,0.37 0.78,0.91 1.53,1.13 0.46,0.13 0.99,0.11 1.54,-0.2 l 2.23,-1.29 0.06,-0.03 c 0.5,-0.31 0.74,-0.82 0.8,-1.34 0.07,-0.59 -0.07,-1.17 -0.29,-1.56 l -0.03,-0.06 1.02,-0.61 z m -16.31,-43.69 -9.71,1.32 3.71,6.42 z m -19.32,0.23 1.29,2.23 5.75,-0.78 4.69,8.11 -3.56,4.59 1.29,2.23 5.48,9.48 2.07,-1.2 -5.96,-10.33 4.45,-5.74 3.65,6.31 2.08,-1.2 -4.14,-7.16 4.02,-5.19 5.55,9.61 2.07,-1.2 -6.03,-10.45 -0.65,-1.12 -0.64,-1.12 z m 2.21,-5.38 c -1.2,0.69 -2.38,0.72 -3.41,0.42 -1.4,-0.4 -2.51,-1.48 -2.94,-2.22 l -2.83,-4.9 c -0.43,-0.74 -0.85,-2.2 -0.54,-3.61 0.23,-1.02 0.82,-2.02 2.02,-2.71 l 13.47,-7.78 1.2,2.08 -13.47,7.78 c -0.53,0.3 -0.79,0.73 -0.88,1.16 -0.17,0.73 0.06,1.49 0.28,1.88 l 2.83,4.9 c 0.21,0.37 0.78,0.91 1.53,1.12 0.45,0.14 0.99,0.12 1.54,-0.2 l 13.34,-7.7 1.2,2.08 z m -137.22,42.53 -5.77,9.98 5.26,3.04 4,-6.92 2.08,1.2 -4,6.92 5.83,3.36 5.76,-9.98 2.08,1.2 -6.96,12.06 -17.32,-10 6.96,-12.06 z m 10.22,-17.71 -4.41,7.65 5.26,3.04 4.42,-7.66 c 0.17,-0.31 0.2,-0.71 0.1,-1.08 -0.1,-0.39 -0.3,-0.73 -0.57,-0.88 l -2.78,-1.61 c -0.33,-0.2 -0.73,-0.26 -1.1,-0.18 -0.35,0.09 -0.69,0.32 -0.92,0.71 h 0.01 l -2.08,-1.19 c 0.59,-1.03 1.49,-1.63 2.46,-1.85 0.95,-0.22 1.97,-0.06 2.83,0.44 v -0.01 0.01 l 2.78,1.61 c 0.84,0.48 1.45,1.38 1.69,2.36 0.24,0.94 0.16,2 -0.35,2.87 l -0.32,0.56 10.2,0.58 -1.34,2.32 -10.2,-0.57 -2.76,4.77 7.91,4.56 -1.2,2.08 -17.32,-10 5.62,-9.73 z m -24.21,41.93 -3.99,6.92 5.26,3.04 4,-6.92 c 0.17,-0.3 0.17,-0.7 0.07,-1.09 -0.12,-0.42 -0.34,-0.78 -0.62,-0.95 l -2.59,-1.49 c -0.37,-0.21 -0.83,-0.28 -1.24,-0.18 -0.35,0.09 -0.67,0.3 -0.89,0.67 z m 7.34,4.24 -3.99,6.92 5.82,3.36 4,-6.92 c 0.31,-0.55 0.52,-1.23 0.38,-1.84 -0.11,-0.44 -0.41,-0.87 -1.03,-1.23 l -2.16,-1.25 c -0.62,-0.33 -1.18,-0.47 -1.65,-0.37 -0.44,0.1 -0.87,0.46 -1.27,1.15 z m 7.91,4.56 -5.2,9 -17.32,-10 5.2,-9 c 0.56,-0.98 1.43,-1.56 2.38,-1.79 1.02,-0.26 2.14,-0.09 3.02,0.42 l 2.59,1.5 c 0.69,0.39 1.24,1.09 1.56,1.88 0.23,-0.1 0.46,-0.18 0.71,-0.23 1.06,-0.24 2.18,0 3.3,0.59 l 0.23,0.13 2,1.15 c 1.27,0.74 1.92,1.72 2.16,2.77 0.29,1.28 -0.06,2.58 -0.63,3.58 z m -27.55,7.71 17.32,10 -1.2,2.08 -17.32,-10 z m -11.37,19.69 15.24,8.8 6.03,-10.43 2.07,1.2 -7.22,12.51 -17.32,-10 z m 72.03,-84.76 -15.24,-8.8 -3.11,5.39 -2.08,-1.2 3.71,-6.43 0.6,-1.04 3.11,-5.38 2.08,1.2 -3.11,5.38 15.24,8.8 z m -3.46,-27.69 6,7.74 3.71,-6.41 z m 9.86,16.61 1.29,-2.23 -3.56,-4.59 4.69,-8.11 5.75,0.78 1.29,-2.23 -21.41,-2.93 -0.64,1.12 -0.65,1.12 z m 9.96,-35.51 -3.25,5.64 c -0.5,0.86 -1.34,1.48 -2.25,1.77 -0.95,0.31 -1.99,0.26 -2.84,-0.23 l -2.99,-1.72 c -0.89,-0.52 -1.53,-1.37 -1.78,-2.36 -0.23,-0.91 -0.12,-1.93 0.44,-2.9 l 3.68,-6.37 0.31,-0.53 0.03,0.02 c 0.5,-0.63 1.15,-1.12 1.89,-1.36 0.89,-0.29 1.87,-0.25 2.82,0.3 l 0.28,0.16 -1.2,2.08 -0.28,-0.16 c -0.3,-0.18 -0.6,-0.19 -0.87,-0.1 -0.35,0.11 -0.67,0.4 -0.89,0.77 l -0.01,0.02 -3.68,6.37 c -0.23,0.4 -0.28,0.79 -0.2,1.13 0.09,0.35 0.33,0.66 0.66,0.85 l 2.99,1.73 c 0.24,0.14 0.58,0.14 0.91,0.03 0.37,-0.12 0.71,-0.37 0.9,-0.7 l 3.26,-5.64 0.03,-0.06 0.01,-0.01 c 0.45,-0.79 1.3,-1.59 2.33,-2.03 1.08,-0.47 2.37,-0.56 3.64,0.12 l 0.11,0.06 h 0.02 l 2.22,1.29 c 1.2,0.69 1.82,1.7 2.07,2.73 0.35,1.42 -0.02,2.92 -0.45,3.66 l -2.83,4.91 c -0.43,0.73 -1.48,1.84 -2.85,2.27 -1.01,0.31 -2.17,0.3 -3.37,-0.4 l -0.36,-0.2 1.2,-2.08 0.36,0.2 c 0.53,0.31 1.03,0.32 1.45,0.19 0.72,-0.22 1.27,-0.8 1.49,-1.18 l 2.83,-4.91 c 0.21,-0.37 0.39,-1.13 0.21,-1.88 -0.12,-0.46 -0.4,-0.92 -0.95,-1.23 l -2.22,-1.29 -0.06,-0.04 c -0.52,-0.28 -1.08,-0.23 -1.56,-0.02 -0.54,0.23 -0.98,0.64 -1.2,1.03 l -0.01,-0.01 -0.03,0.06 -1.05,-0.58 z"
   style="fill:#ffffff"
   id="path7059" />

      <path
   style="fill:#ed1c24"
   d="m 299.77,97.13 60,103.93 60,103.92 h -240 l 60,-103.92 z"
   id="path7061" />

      <path
   class="fil2"
   d="m 338,134.16 c -1.2,0.69 -2.38,0.72 -3.4,0.42 -0.58,-0.16 -1.1,-0.44 -1.55,-0.76 l -0.07,0.4 -2.36,-0.42 0.45,-2.45 -2.25,-3.9 c -0.42,-0.73 -0.85,-2.19 -0.54,-3.6 0.23,-1.03 0.82,-2.02 2.03,-2.72 l 10.18,-5.88 c 0.9,-0.51 1.95,-0.65 2.94,-0.36 0.9,0.26 1.73,0.86 2.29,1.83 l 3.68,6.37 0.31,0.53 -0.04,0.02 c 0.3,0.74 0.39,1.56 0.23,2.32 -0.19,0.91 -0.72,1.74 -1.67,2.29 z m -3.51,-8.23 -0.9,4.97 0.14,0.26 c 0.22,0.37 0.79,0.91 1.53,1.12 0.46,0.13 0.99,0.12 1.54,-0.2 l 10.23,-5.91 c 0.3,-0.17 0.47,-0.42 0.53,-0.7 0.07,-0.36 -0.02,-0.79 -0.23,-1.16 l -0.01,-0.02 -3.68,-6.37 c -0.23,-0.4 -0.54,-0.64 -0.88,-0.74 -0.35,-0.1 -0.73,-0.04 -1.07,0.15 l -10.18,5.88 c -0.54,0.31 -0.79,0.73 -0.89,1.16 -0.16,0.74 0.06,1.5 0.28,1.88 l 0.84,1.45 0.4,-2.2 z m 68.12,94.13 -5.76,-9.99 -5.26,3.04 3.99,6.92 -2.08,1.2 -3.99,-6.92 -5.83,3.36 5.77,9.99 -2.08,1.2 -6.97,-12.07 17.33,-10 6.96,12.07 z m 9.27,16.05 -4.42,-7.65 -5.26,3.04 4.42,7.65 c 0.18,0.31 0.52,0.53 0.89,0.64 0.39,0.11 0.78,0.1 1.04,-0.05 l 2.79,-1.61 c 0.33,-0.19 0.59,-0.5 0.7,-0.86 0.11,-0.35 0.08,-0.76 -0.15,-1.16 l -0.01,0.01 2.08,-1.21 z m 2.08,-1.2 v 0.01 c 0.59,1.02 0.66,2.1 0.37,3.05 -0.29,0.94 -0.94,1.74 -1.79,2.23 h -0.01 l -2.78,1.61 c -0.84,0.48 -1.92,0.56 -2.89,0.28 -0.94,-0.27 -1.81,-0.86 -2.32,-1.74 l -0.32,-0.56 -5.6,8.55 -1.34,-2.32 5.6,-8.55 -2.76,-4.77 -7.9,4.56 -1.2,-2.08 17.32,-10 z m 6.3,17.24 -9.71,1.32 3.71,6.42 z m -19.31,0.23 1.29,2.23 5.75,-0.79 4.68,8.12 -3.55,4.59 1.29,2.23 13.23,-17.07 -0.64,-1.12 -0.65,-1.12 z m -18.93,-51.03 -3.25,-5.63 c -0.5,-0.87 -0.62,-1.91 -0.42,-2.84 0.22,-0.98 0.78,-1.86 1.62,-2.35 l 2.99,-1.72 c 0.9,-0.52 1.95,-0.65 2.93,-0.37 0.91,0.26 1.74,0.87 2.3,1.84 l 3.68,6.36 0.3,0.54 -0.03,0.02 c 0.29,0.74 0.39,1.55 0.23,2.31 -0.19,0.92 -0.72,1.75 -1.67,2.3 l -0.28,0.16 -1.2,-2.08 0.28,-0.16 c 0.3,-0.18 0.47,-0.43 0.52,-0.7 0.08,-0.37 -0.01,-0.79 -0.22,-1.17 l -0.01,-0.02 -3.68,-6.36 c -0.23,-0.4 -0.55,-0.64 -0.88,-0.74 -0.35,-0.1 -0.73,-0.05 -1.07,0.15 l -2.99,1.72 c -0.24,0.14 -0.41,0.43 -0.48,0.77 -0.08,0.38 -0.04,0.8 0.16,1.14 l 3.25,5.63 0.03,0.06 0.02,0.01 c 0.45,0.79 0.72,1.93 0.59,3.04 -0.14,1.17 -0.7,2.33 -1.92,3.09 l -0.11,0.06 -0.01,0.02 -2.23,1.28 c -1.2,0.7 -2.38,0.72 -3.41,0.43 -1.4,-0.41 -2.51,-1.48 -2.94,-2.23 l -2.83,-4.9 c -0.42,-0.74 -0.85,-2.2 -0.54,-3.6 0.23,-1.03 0.82,-2.03 2.02,-2.72 l 0.36,-0.21 1.2,2.08 -0.36,0.21 c -0.53,0.31 -0.79,0.73 -0.88,1.16 -0.17,0.73 0.06,1.5 0.28,1.88 l 2.83,4.9 c 0.21,0.37 0.78,0.91 1.53,1.13 0.46,0.13 0.99,0.11 1.54,-0.2 l 2.23,-1.29 0.06,-0.03 c 0.5,-0.31 0.74,-0.82 0.8,-1.34 0.07,-0.59 -0.07,-1.17 -0.29,-1.56 l -0.03,-0.06 1.02,-0.61 z m -16.31,-43.69 -9.71,1.32 3.71,6.42 z m -19.32,0.23 1.29,2.23 5.75,-0.78 4.69,8.11 -3.56,4.59 1.29,2.23 5.48,9.48 2.07,-1.2 -5.96,-10.33 4.45,-5.74 3.65,6.31 2.08,-1.2 -4.14,-7.16 4.02,-5.19 5.55,9.61 2.07,-1.2 -6.03,-10.45 -0.65,-1.12 -0.64,-1.12 z m 2.21,-5.38 c -1.2,0.69 -2.38,0.72 -3.41,0.42 -1.4,-0.4 -2.51,-1.48 -2.94,-2.22 l -2.83,-4.9 c -0.43,-0.74 -0.85,-2.2 -0.54,-3.61 0.23,-1.02 0.82,-2.02 2.02,-2.71 l 13.47,-7.78 1.2,2.08 -13.47,7.78 c -0.53,0.3 -0.79,0.73 -0.88,1.16 -0.17,0.73 0.06,1.49 0.28,1.88 l 2.83,4.9 c 0.21,0.37 0.78,0.91 1.53,1.12 0.45,0.14 0.99,0.12 1.54,-0.2 l 13.34,-7.7 1.2,2.08 z"
   id="path7063" />

      <g
   id="g7067">
        <path
   class="fil2"
   d="m 211.38,195.04 -5.77,9.98 5.26,3.04 4,-6.92 2.08,1.2 -4,6.92 5.83,3.36 5.76,-9.98 2.08,1.2 -6.96,12.06 -17.32,-10 6.96,-12.06 z m 10.22,-17.71 -4.41,7.65 5.26,3.04 4.42,-7.66 c 0.17,-0.31 0.2,-0.71 0.1,-1.08 -0.1,-0.39 -0.3,-0.73 -0.57,-0.88 l -2.78,-1.61 c -0.33,-0.2 -0.73,-0.26 -1.1,-0.18 -0.35,0.09 -0.69,0.32 -0.92,0.71 h 0.01 l -2.08,-1.19 c 0.59,-1.03 1.49,-1.63 2.46,-1.85 0.95,-0.22 1.97,-0.06 2.83,0.44 v -0.01 0.01 l 2.78,1.61 c 0.84,0.48 1.45,1.38 1.69,2.36 0.24,0.94 0.16,2 -0.35,2.87 l -0.32,0.56 10.2,0.58 -1.34,2.32 -10.2,-0.57 -2.76,4.77 7.91,4.56 -1.2,2.08 -17.32,-10 5.62,-9.73 z m -24.21,41.93 -3.99,6.92 5.26,3.04 4,-6.92 c 0.17,-0.3 0.17,-0.7 0.07,-1.09 -0.12,-0.42 -0.34,-0.78 -0.62,-0.95 l -2.59,-1.49 c -0.37,-0.21 -0.83,-0.28 -1.24,-0.18 -0.35,0.09 -0.67,0.3 -0.89,0.67 z m 7.34,4.24 -3.99,6.92 5.82,3.36 4,-6.92 c 0.31,-0.55 0.52,-1.23 0.38,-1.84 -0.11,-0.44 -0.41,-0.87 -1.03,-1.23 l -2.16,-1.25 c -0.62,-0.33 -1.18,-0.47 -1.65,-0.37 -0.44,0.1 -0.87,0.46 -1.27,1.15 z m 7.91,4.56 -5.2,9 -17.32,-10 5.2,-9 c 0.56,-0.98 1.43,-1.56 2.38,-1.79 1.02,-0.26 2.14,-0.09 3.02,0.42 l 2.59,1.5 c 0.69,0.39 1.24,1.09 1.56,1.88 0.23,-0.1 0.46,-0.18 0.71,-0.23 1.06,-0.24 2.18,0 3.3,0.59 l 0.23,0.13 2,1.15 c 1.27,0.74 1.92,1.72 2.16,2.77 0.29,1.28 -0.06,2.58 -0.63,3.58 z m -27.55,7.71 17.32,10 -1.2,2.08 -17.32,-10 z m -11.37,19.69 15.24,8.8 6.03,-10.43 2.07,1.2 -7.22,12.51 -17.32,-10 z m 72.03,-84.76 -15.24,-8.8 -3.11,5.39 -2.08,-1.2 3.71,-6.43 0.6,-1.04 3.11,-5.38 2.08,1.2 -3.11,5.38 15.24,8.8 z m -3.46,-27.69 6,7.74 3.71,-6.41 z m 9.86,16.61 1.29,-2.23 -3.56,-4.59 4.69,-8.11 5.75,0.78 1.29,-2.23 -21.41,-2.93 -0.64,1.12 -0.65,1.12 z m 9.96,-35.51 -3.25,5.64 c -0.5,0.86 -1.34,1.48 -2.25,1.77 -0.95,0.31 -1.99,0.26 -2.84,-0.23 l -2.99,-1.72 c -0.89,-0.52 -1.53,-1.37 -1.78,-2.36 -0.23,-0.91 -0.12,-1.93 0.44,-2.9 l 3.68,-6.37 0.31,-0.53 0.03,0.02 c 0.5,-0.63 1.15,-1.12 1.89,-1.36 0.89,-0.29 1.87,-0.25 2.82,0.3 l 0.28,0.16 -1.2,2.08 -0.28,-0.16 c -0.3,-0.18 -0.6,-0.19 -0.87,-0.1 -0.35,0.11 -0.67,0.4 -0.89,0.77 l -0.01,0.02 -3.68,6.37 c -0.23,0.4 -0.28,0.79 -0.2,1.13 0.09,0.35 0.33,0.66 0.66,0.85 l 2.99,1.73 c 0.24,0.14 0.58,0.14 0.91,0.03 0.37,-0.12 0.71,-0.37 0.9,-0.7 l 3.26,-5.64 0.03,-0.06 0.01,-0.01 c 0.45,-0.79 1.3,-1.59 2.33,-2.03 1.08,-0.47 2.37,-0.56 3.64,0.12 l 0.11,0.06 h 0.02 l 2.22,1.29 c 1.2,0.69 1.82,1.7 2.07,2.73 0.35,1.42 -0.02,2.92 -0.45,3.66 l -2.83,4.91 c -0.43,0.73 -1.48,1.84 -2.85,2.27 -1.01,0.31 -2.17,0.3 -3.37,-0.4 l -0.36,-0.2 1.2,-2.08 0.36,0.2 c 0.53,0.31 1.03,0.32 1.45,0.19 0.72,-0.22 1.27,-0.8 1.49,-1.18 l 2.83,-4.91 c 0.21,-0.37 0.39,-1.13 0.21,-1.88 -0.12,-0.46 -0.4,-0.92 -0.95,-1.23 l -2.22,-1.29 -0.06,-0.04 c -0.52,-0.28 -1.08,-0.23 -1.56,-0.02 -0.54,0.23 -0.98,0.64 -1.2,1.03 l -0.01,-0.01 -0.03,0.06 -1.05,-0.58 z"
   id="path7065" />

      </g>

      <g
   id="g7071">
        <path
   class="fil2"
   d="M 338.98,317.38 H 325 v 6.08 h 9.77 v 2.4 H 325 v 6.72 h 13.98 v 2.4 H 322.6 v -20 h 16.38 z m -102.21,17.6 v -17.6 h -8.15 v -2.4 h 18.7 v 2.4 h -8.15 v 17.6 z m 27.19,-17.08 -4.2,9.31 h 8.39 z m -1.32,-2.92 h 2.63 l 9.01,20 h -2.63 l -2.42,-5.37 h -10.55 l -2.42,5.37 h -2.62 z m 21.91,20 v -20 h 1.65 l 11.66,10.26 11.65,-10.26 h 1.65 v 20 h -2.4 v -16.14 l -10.9,9.6 -0.81,-0.72 -0.01,0.01 -9.61,-8.48 -0.48,-0.41 v 16.14 z m 65.35,0 v -20 h 1.68 l 16.94,16.1 v -16.1 h 2.4 v 20 h -1.77 L 352.3,318.97 v 16.01 z"
   id="path7069" />

      </g>

    </g>

  </g>
    </g>
  </g>
</svg>
