<?xml version="1.0" encoding="UTF-8" standalone="no"?>
<svg
   id="flag-icons-cl"
   viewBox="0 0 512 512"
   version="1.1"
   sodipodi:docname="br-sp.svg"
   inkscape:version="1.1.2 (b8e25be8, 2022-02-05)"
   xmlns:inkscape="http://www.inkscape.org/namespaces/inkscape"
   xmlns:sodipodi="http://sodipodi.sourceforge.net/DTD/sodipodi-0.dtd"
   xmlns:xlink="http://www.w3.org/1999/xlink"
   xmlns="http://www.w3.org/2000/svg"
   xmlns:svg="http://www.w3.org/2000/svg">
  <sodipodi:namedview
     id="namedview840"
     pagecolor="#ffffff"
     bordercolor="#666666"
     borderopacity="1.0"
     inkscape:pageshadow="2"
     inkscape:pageopacity="0.0"
     inkscape:pagecheckerboard="0"
     showgrid="false"
     inkscape:snap-bbox="true"
     inkscape:bbox-nodes="true"
     inkscape:snap-bbox-midpoints="true"
     inkscape:snap-center="true"
     inkscape:snap-object-midpoints="true"
     inkscape:snap-page="true"
     inkscape:zoom="0.67248961"
     inkscape:cx="388.85359"
     inkscape:cy="409.67176"
     inkscape:window-width="1312"
     inkscape:window-height="969"
     inkscape:window-x="0"
     inkscape:window-y="44"
     inkscape:window-maximized="0"
     inkscape:current-layer="g1050" />
  <defs
     id="defs827">
    <clipPath
       id="cl-a">
      <path
         fill-opacity=".7"
         d="M0 0h708.7v708.7H0z"
         id="path824" />
    </clipPath>
    <g
       id="star"
       transform="scale(75)">
      <g
         id="cone">
        <polygon
           id="triangle"
           fill="#FFEC00"
           points="0,0 0,1 .5,1"
           transform="translate(0,-1) rotate(18)" />
        <use
           xlink:href="#triangle"
           transform="scale(-1,1)"
           id="use996" />
      </g>
      <g
         id="cone2">
        <use
           xlink:href="#cone"
           transform="rotate(72)"
           id="use999" />
        <use
           xlink:href="#cone"
           transform="rotate(216)"
           id="use1001" />
      </g>
      <use
         xlink:href="#cone2"
         transform="rotate(72)"
         id="use1004" />
    </g>
  </defs>
  <g
     id="g1050"
     transform="scale(0.39358256)">
    <rect
       fill="#ffffff"
       width="1950"
       height="1300"
       id="rect1009"
       x="0"
       y="0" />
    <line
       x1="975"
       x2="975"
       y2="1300"
       style="stroke:#212125;stroke-width:1950;stroke-dasharray:100, 100"
       id="line1011"
       y1="0" />
    <path
       fill="#ffffff"
       d="M 0,0 765,510 H 0 Z"
       id="path1013" />
    <rect
       fill="#c40008"
       width="750"
       height="500"
       id="rect1015"
       x="0"
       y="0" />
    <use
       xlink:href="#star"
       x="100"
       y="100"
       id="use1017"
       width="100%"
       height="100%" />
    <use
       xlink:href="#star"
       x="100"
       y="400"
       id="use1019"
       width="100%"
       height="100%" />
    <use
       xlink:href="#star"
       x="650"
       y="100"
       id="use1021"
       width="100%"
       height="100%" />
    <use
       xlink:href="#star"
       x="650"
       y="400"
       id="use1023"
       width="100%"
       height="100%" />
    <circle
       fill="#ffffff"
       cx="375"
       cy="250"
       r="200"
       id="circle1025" />
    <path
       id="map"
       fill="#294292"
       transform="matrix(0.232,0,0,0.232,375,250)"
       d="m -672,-138 c 2,4 6,6 9,9 2,3 4,7 6,11 2,4 6,7 6,11 0,3 -5,5 -6,8 0,2 0,4 1,7 l 3,3 c 4,0 5,-4 8,-6 h 5 c 2,1 2,5 4,5 1,1 3,-3 5,-2 2,0 4,1 5,3 3,4 2,9 5,13 2,3 6,4 10,5 3,0 7,-1 9,-3 3,-3 3,-7 5,-9 2,-2 5,-1 7,-2 2,-1 4,-3 7,-4 1,-1 4,-4 5,-3 3,4 2,9 2,13 1,12 -3,25 1,36 1,4 7,3 11,2 4,-1 7,-5 11,-5 5,-1 10,0 14,0 6,1 13,1 19,1 7,1 14,2 21,0 3,0 6,-4 7,-7 2,-2 0,-6 2,-8 1,-1 5,-1 7,-1 2,0 3,3 4,2 4,-1 7,-4 9,-6 3,-3 4,-8 7,-10 2,-1 4,3 5,2 3,-2 4,-6 6,-9 3,-3 7,-6 10,-7 5,-2 11,-3 16,-4 3,0 5,-1 8,-1 3,0 6,1 9,1 2,0 4,-2 6,-2 1,-1 3,-3 4,-1 3,3 4,9 4,13 0,4 -4,6 -4,9 -1,4 0,8 1,11 1,3 4,4 5,7 1,3 1,6 0,9 -1,2 -5,1 -5,3 0,4 2,7 3,10 2,4 2,8 5,12 3,5 7,10 12,13 4,3 9,3 13,5 2,2 1,7 4,9 3,2 7,2 10,1 4,0 7,-1 10,-2 1,0 2,-2 4,-2 4,1 9,4 13,6 3,2 4,6 7,8 3,1 6,-1 8,1 4,1 6,6 10,7 3,2 7,3 10,3 2,1 5,-1 7,1 4,3 6,9 11,12 3,2 8,3 13,2 2,-1 2,-6 5,-6 4,-1 7,2 11,3 3,2 6,4 9,6 4,2 10,3 12,7 2,3 -2,8 -1,12 1,5 5,9 7,14 1,3 0,8 0,12 0,1 1,2 0,3 -3,1 -6,-1 -8,0 -1,1 0,4 1,5 1,2 4,3 5,6 2,4 3,9 3,14 1,4 0,8 1,11 1,4 4,8 7,9 8,2 17,0 26,0 8,1 16,1 24,1 2,1 7,-2 7,1 1,3 -5,5 -6,9 0,3 3,5 4,7 2,4 2,9 4,12 2,3 5,4 8,6 3,3 5,6 8,9 3,3 6,7 8,11 2,4 2,8 2,13 0,4 -1,8 -3,12 -1,5 -4,10 -6,15 -1,6 -3,11 -5,16 -1,3 -4,7 -3,10 1,3 5,3 7,4 1,2 2,4 1,5 -1,2 -4,0 -6,2 -2,2 -3,6 -2,9 0,4 3,7 4,11 1,2 2,4 3,7 1,2 3,4 3,7 1,4 1,8 0,13 0,2 -1,4 -2,7 0,2 1,5 1,7 0,3 -2,6 -2,9 0,3 0,7 3,9 3,1 6,-3 9,-3 3,0 7,1 11,1 3,1 7,0 10,1 3,0 5,2 7,2 2,1 5,2 7,2 2,-1 2,-7 5,-6 3,0 3,5 6,7 4,2 10,0 14,2 3,3 5,9 6,13 3,8 3,15 5,23 1,4 1,10 5,13 2,2 7,2 11,3 5,0 10,-2 14,-1 4,1 10,3 11,7 2,5 -4,10 -4,15 0,4 3,7 2,11 0,3 -3,6 -3,10 -1,2 3,3 2,5 -1,2 -4,1 -5,3 -1,2 -1,5 0,8 0,3 0,6 3,7 4,1 10,-4 14,-2 5,3 7,10 9,15 2,3 3,7 3,10 -1,2 -4,3 -4,5 -1,3 1,6 1,10 0,3 -1,6 -2,9 -2,4 -3,7 -6,10 -2,2 -4,3 -7,4 -3,1 -7,0 -11,1 -4,2 -7,6 -10,8 -3,2 -5,5 -8,7 -4,3 -9,5 -14,8 -2,2 -3,5 -6,8 -2,3 -5,6 -7,9 -2,2 -3,4 -5,6 -3,3 -6,4 -9,6 -2,3 -3,7 -5,9 -2,3 -5,4 -7,7 -2,3 -2,8 -5,11 -3,3 -8,2 -10,5 -3,2 -3,6 -4,9 -1,2 -3,5 -1,6 2,2 5,-2 7,-1 2,0 3,3 4,3 2,0 3,-2 4,-3 1,-1 1,-3 2,-4 2,-1 5,-2 7,-2 2,0 2,3 4,4 1,1 3,1 4,2 2,2 1,5 3,7 2,2 6,2 7,3 2,2 2,5 3,7 1,3 2,6 3,7 1,1 3,1 5,0 1,0 3,-1 5,-2 1,-1 2,-1 2,-2 1,-1 0,-3 0,-4 1,-1 2,-1 3,-1 2,0 6,0 6,2 1,2 -3,4 -4,6 0,2 1,4 2,5 3,4 7,8 12,10 3,2 8,2 11,4 3,2 6,5 8,7 2,3 3,6 6,8 3,3 8,3 11,7 4,3 4,9 7,13 8,11 19,5 11,18 0,1 -2,2 -3,3 -2,1 -3,1 -4,2 -1,2 -2,3 -2,5 0,2 -1,5 0,8 0,2 2,4 3,5 2,1 3,1 5,0 1,0 2,-2 3,-3 3,-1 6,-2 8,-3 3,-2 7,-4 9,-7 2,-2 2,-5 2,-8 1,-2 1,-4 1,-6 1,-2 2,-4 2,-6 2,-4 5,-8 5,-12 1,-2 -2,-4 -2,-7 0,-2 2,-3 2,-4 1,-3 1,-6 3,-9 2,-4 6,-9 9,-13 2,-2 5,-2 6,-3 2,-1 3,-2 4,-4 1,-2 0,-5 1,-8 1,-3 4,-5 5,-8 1,-2 3,-3 3,-6 0,-1 -2,-2 -2,-3 -2,-2 -3,-4 -4,-7 0,-1 -1,-2 0,-3 3,0 6,0 8,2 3,3 2,7 4,10 2,2 4,3 5,3 2,0 1,-2 1,-3 1,-1 0,-4 1,-3 2,0 2,3 4,4 1,0 2,-3 3,-2 1,1 1,3 0,5 -1,1 -5,0 -6,2 -1,1 1,4 0,6 -1,2 -3,3 -5,6 -1,1 0,3 -2,4 -3,2 -8,0 -10,3 -2,3 2,8 1,11 -1,2 -5,1 -7,2 -2,1 -3,3 -4,4 -3,3 -8,5 -11,8 -1,2 -1,5 0,7 2,2 6,3 8,1 2,0 2,-4 4,-6 2,-2 5,-4 7,-6 4,-2 7,-4 10,-7 3,-2 4,-5 6,-7 3,-3 6,-3 8,-5 3,-4 5,-8 7,-13 2,-2 4,-5 4,-8 2,-4 2,-8 3,-12 0,-1 -1,-3 0,-4 1,-2 4,-2 5,-4 1,-1 1,-3 2,-4 2,-3 5,-3 6,-6 1,-2 -2,-5 -2,-7 0,-1 0,-3 1,-3 2,0 4,2 7,2 2,-1 3,-4 4,-5 2,-3 4,-5 6,-7 4,-2 8,-2 12,-4 2,-2 4,-5 6,-8 1,-2 3,-4 4,-6 1,-4 0,-8 1,-11 1,-5 4,-9 4,-14 1,-3 -2,-4 -2,-7 1,-3 5,-6 5,-10 0,-2 -3,-4 -3,-6 -1,-4 -1,-8 -1,-12 0,-4 0,-7 1,-11 0,-5 1,-9 3,-14 1,-3 6,-4 6,-8 0,-2 -4,-3 -6,-5 v -3 c 1,-1 2,-2 3,-3 4,0 8,7 12,6 6,-1 5,-10 8,-14 4,-4 8,-6 13,-9 5,-4 11,-7 17,-11 3,-2 6,-5 9,-7 2,-2 4,-4 7,-5 3,-2 7,-3 11,-5 3,-2 6,-6 10,-6 4,-1 9,2 13,2 4,0 9,0 12,-2 4,-2 5,-7 8,-9 3,-3 8,-3 11,-6 2,-2 1,-5 3,-8 1,-2 2,-4 4,-5 3,0 6,2 9,3 2,0 5,2 8,2 2,0 4,-4 7,-5 2,0 5,0 7,1 2,1 2,4 4,6 1,1 3,2 5,2 5,-1 11,-1 15,-4 2,-1 1,-5 3,-6 2,0 3,4 5,5 3,1 8,1 11,2 3,1 4,5 6,4 5,-1 10,-4 13,-8 2,-3 0,-8 2,-10 2,-3 6,-3 8,-5 7,-3 14,-5 19,-10 2,-1 1,-4 1,-6 0,-2 -3,-2 -3,-3 0,-2 2,-5 4,-5 2,0 4,5 5,3 2,-2 -1,-6 0,-10 0,-1 1,-3 2,-5 3,-4 6,-8 10,-12 3,-4 8,-8 11,-12 1,-2 1,-5 3,-7 4,-5 9,-11 13,-16 5,-5 10,-9 13,-14 3,-5 3,-11 4,-17 1,-4 0,-9 1,-14 1,-5 2,-10 5,-14 2,-6 6,-11 9,-16 3,-3 7,-6 8,-10 2,-4 0,-9 1,-13 1,-9 4,-17 7,-24 2,-7 6,-13 8,-19 1,-2 3,-4 3,-6 0,-4 -2,-7 -2,-11 0,-3 3,-6 3,-9 -1,-5 -5,-9 -5,-14 0,-4 2,-9 4,-13 1,-7 5,-13 5,-19 0,-6 -6,-10 -6,-16 0,-5 4,-10 6,-15 1,-3 1,-6 2,-8 2,-2 6,-3 6,-5 0,-3 -4,-5 -4,-8 0,-2 3,-5 5,-4 4,2 2,9 6,11 3,2 8,-1 11,-3 3,-2 5,-6 8,-8 5,-5 11,-7 15,-12 4,-4 6,-10 9,-15 V 5 c 0,-3 1,-7 2,-10 1,-3 4,-6 5,-10 1,-2 -1,-4 0,-5 2,-1 4,3 5,2 3,-2 3,-7 5,-10 3,-3 7,-6 11,-9 6,-6 12,-12 19,-17 3,-2 6,-4 9,-7 2,-2 1,-6 3,-8 2,-1 5,0 7,-1 2,-2 4,-4 5,-7 1,-1 -1,-4 0,-6 4,-5 10,-8 14,-13 4,-4 8,-9 10,-14 4,-6 5,-12 8,-19 3,-7 7,-14 9,-22 1,-8 1,-16 0,-23 0,-10 0,-19 -1,-29 -1,-5 -2,-11 -3,-17 -1,-4 -1,-8 -2,-13 -3,-8 -6,-16 -10,-23 -2,-3 -5,-5 -8,-6 -8,-3 -16,-4 -24,-5 -6,-1 -12,2 -18,1 -7,-2 -13,-7 -19,-10 -7,-5 -12,-10 -18,-14 -7,-5 -13,-10 -19,-16 -6,-5 -11,-11 -17,-17 -5,-4 -10,-9 -16,-12 -6,-4 -14,-4 -21,-7 -4,-3 -8,-7 -13,-9 -6,-2 -12,-2 -18,-3 -6,0 -13,1 -19,2 -4,1 -8,5 -13,5 -5,-1 -9,-6 -14,-8 -3,-1 -7,-3 -11,-3 -4,-1 -9,2 -13,1 -2,-1 -3,-5 -5,-5 -4,-2 -9,0 -13,-1 -2,-1 -2,-5 -4,-6 -5,-2 -11,-2 -16,-4 -1,0 -2,-3 -4,-3 -2,1 -1,6 -3,7 -3,1 -6,-1 -8,-3 -2,-1 -1,-6 -3,-5 -3,2 -2,7 -4,10 -2,1 -4,1 -6,0 -2,0 -4,-2 -5,-3 -2,-1 -4,-2 -6,-1 -2,3 -2,8 -3,12 -2,3 -3,6 -6,9 -2,2 -6,3 -8,6 -2,4 -1,17 -3,13 -2,-5 0,-11 2,-16 0,-2 2,-5 3,-8 1,-2 0,-4 1,-6 1,-3 3,-6 5,-9 1,-2 3,-4 5,-6 1,-1 4,-2 4,-3 -1,-2 -3,-4 -5,-4 -2,1 -4,6 -6,4 -2,-1 1,-4 2,-6 1,-2 4,-3 4,-5 0,-3 -2,-5 -4,-7 -1,-1 -4,0 -5,-1 -2,-3 -3,-7 -5,-9 -1,-1 -3,0 -4,-1 -2,0 -3,-3 -5,-2 -3,0 -5,2 -6,5 -1,3 4,8 1,9 -4,1 -6,-5 -7,-8 -1,-3 4,-5 4,-8 -1,-2 -3,-3 -6,-3 -1,-1 -1,2 -2,2 -2,-1 0,-5 -2,-5 -3,-1 -6,2 -9,2 -3,0 -6,-4 -9,-4 -1,0 -2,4 -3,3 -2,-2 0,-7 -2,-8 -3,-1 -6,5 -9,4 -3,-1 -3,-8 -7,-10 -5,-3 -10,-3 -16,-4 -5,-2 -10,-5 -15,-6 -2,0 3,5 1,4 -4,0 -8,-5 -12,-6 -3,0 -4,4 -5,4 -3,2 -6,1 -8,3 -3,1 -4,4 -6,6 -3,3 -6,6 -9,9 -2,2 -6,4 -6,6 0,5 9,8 6,11 -2,3 -7,-4 -10,-4 -4,1 -6,6 -9,8 -2,1 -3,0 -4,0 -4,0 -8,-1 -12,1 -4,1 -7,6 -11,8 -3,1 -6,0 -9,0 -4,0 -8,-3 -12,-2 -3,2 -2,10 -6,9 -6,0 -7,-10 -12,-11 -3,-1 -3,7 -6,8 -3,1 -5,-3 -5,-6 1,-3 7,-3 9,-7 1,-3 1,-8 0,-11 -1,-3 -2,-7 -5,-7 -8,0 -15,5 -23,8 -7,2 -15,6 -22,7 -5,1 -10,3 -14,0 -2,-1 3,-5 5,-6 5,-2 12,1 17,-2 4,-4 4,-10 6,-16 0,-1 0,-3 1,-4 4,-7 8,-15 13,-21 6,-8 12,-14 19,-21 3,-3 8,-5 11,-9 6,-5 10,-11 14,-17 4,-5 9,-11 10,-18 0,-4 -3,-8 -6,-10 -6,-3 -13,1 -18,-2 -4,-2 -5,-7 -6,-11 -1,-2 1,-4 1,-7 -1,-4 -3,-8 -5,-12 -3,-6 -6,-11 -8,-18 -1,-6 -1,-12 -2,-18 -1,-4 0,-9 -2,-13 -3,-6 -7,-15 -14,-16 -4,0 5,10 3,14 -2,3 -5,-7 -8,-6 -7,5 -11,14 -16,21 -5,9 -10,18 -15,27 -2,5 -4,9 -6,13 -2,4 -2,9 -5,11 -4,3 -10,5 -15,4 -5,-1 -6,-7 -10,-8 -2,-1 -4,3 -6,3 -2,0 -4,-4 -6,-4 -6,1 -9,8 -14,8 -5,1 -8,-4 -13,-6 -1,0 -3,3 -4,2 -5,-3 -8,-12 -14,-12 -8,-1 -16,8 -24,9 -4,0 -7,-7 -10,-6 -5,1 -9,5 -10,10 0,5 7,9 7,14 0,2 -4,4 -6,3 -5,-2 -8,-9 -13,-10 -2,-1 2,5 0,7 -2,2 -7,4 -11,4 -3,0 -6,-4 -10,-4 -5,-1 -12,-2 -17,1 -2,1 3,6 0,7 -5,3 -13,0 -19,2 -2,0 2,4 0,5 -3,1 -6,-3 -8,-2 -6,3 -7,11 -13,13 -4,2 -10,-1 -14,-3 -6,-3 -12,-7 -16,-12 -3,-3 -4,-7 -5,-11 0,-4 4,-8 3,-12 -1,-3 -7,-4 -8,-7 -2,-5 -3,-12 -3,-17 1,-3 5,-4 6,-6 2,-3 -1,-6 1,-9 3,-4 10,-4 11,-8 2,-6 -2,-11 -3,-17 -1,-4 -3,-8 -4,-11 -2,-2 -3,-5 -5,-6 -2,-1 -6,1 -8,-1 -4,-4 -6,-9 -6,-14 -1,-4 4,-7 3,-11 -1,-2 -5,-4 -8,-4 -3,1 -4,5 -7,7 -2,1 -4,1 -6,0 -3,-1 -5,-7 -6,-5 -2,3 3,6 3,9 1,3 1,6 -1,8 -3,4 -7,7 -12,9 -5,3 -12,3 -17,6 -3,2 -3,7 -6,9 -4,2 -10,2 -14,3 -6,1 -11,-2 -16,0 -5,2 -9,5 -12,9 -1,3 2,6 1,9 -1,2 -4,1 -5,0 -3,-2 -4,-7 -7,-8 -3,-2 -7,0 -10,-1 -6,-1 -12,-3 -17,-6 -4,-2 -5,-10 -10,-10 -5,0 -10,6 -13,11 -2,3 -1,9 2,11 4,3 11,-2 15,2 3,2 2,7 1,11 -1,3 -3,5 -5,8 -1,3 -3,6 -3,10 0,5 1,9 2,14 1,3 2,5 4,7 1,2 4,2 6,2 2,1 5,4 8,3 2,0 4,-4 6,-4 4,1 9,6 6,8 -5,5 -14,0 -19,5 -7,5 -5,18 -12,23 -3,3 -3,-8 -7,-8 -4,0 -5,7 -8,10 -7,6 -14,10 -20,15 -3,3 -4,11 -8,10 -5,0 -2,-9 -6,-12 -3,-2 -7,-3 -10,0 -3,3 0,13 -5,13 -7,1 -11,-7 -17,-11 -5,-3 -11,-5 -14,-10 -2,-2 1,-6 0,-9 -4,-8 -7,-19 -15,-22 -6,-2 -7,12 -13,13 -4,1 -5,-7 -9,-9 -3,-1 -7,-1 -8,2 -1,3 7,9 3,10 -13,5 -27,2 -41,2 -5,0 -13,-4 -15,1 -3,8 -1,18 3,27 1,3 7,0 10,0 3,-1 6,-3 8,-1 3,2 2,7 2,10 -1,3 -3,7 -6,7 -3,0 -5,-7 -9,-7 -5,1 -12,4 -14,9 -3,8 -1,17 0,25 1,3 3,5 6,8 2,1 6,1 7,4 3,3 2,7 4,11 1,3 4,5 4,8 0,5 -3,9 -3,14 0,4 2,9 1,13 -3,22 -7,45 -12,67 -2,9 -2,20 -8,26 -3,3 -8,-8 -12,-7 -6,1 -8,9 -14,10 -3,1 -6,-5 -9,-4 -3,0 -4,4 -7,5 -3,2 -7,-1 -10,0 -6,3 -10,8 -15,12 -5,4 -11,6 -15,11 -5,5 -8,12 -10,18 -2,5 -3,10 -4,15 0,4 1,8 0,12 -1,5 -1,11 -5,15 -2,4 -9,2 -11,6 -3,5 -2,11 -2,16 0,3 2,7 0,9 -2,3 -7,1 -8,4 -1,2 1,5 2,7 2,2 5,2 7,4 2,2 1,6 2,8 1,3 2,6 4,8 z M 98,-431 c 3,-5 6,-11 10,-16 3,-3 8,-12 11,-9 4,5 -1,13 -3,18 -2,6 -6,12 -11,16 -4,4 -11,14 -15,9 -5,-5 5,-12 8,-18 z m 33,-14 c -1,4 3,8 3,12 -1,4 -6,6 -6,9 -1,5 0,11 3,15 2,2 7,0 9,2 2,2 -2,6 0,7 5,2 10,0 14,1 3,0 5,3 8,2 2,0 1,-4 3,-6 4,-2 8,-1 11,-3 4,-1 6,-5 10,-5 2,0 3,4 6,4 2,0 5,-2 6,-5 0,-3 -5,-8 -3,-11 3,-5 11,-5 15,-10 4,-5 13,-12 9,-18 -5,-7 -18,-9 -26,-5 -6,4 0,16 -5,22 -2,3 -4,-7 -4,-11 0,-2 5,-1 5,-3 0,-3 -2,-6 -4,-7 -7,-3 -14,-2 -21,-2 -6,-1 -13,-1 -19,0 -3,1 -5,4 -8,6 -2,2 -6,3 -6,6 z m 19,-18 c 6,-1 12,1 16,-2 3,-2 6,-8 4,-10 -5,-4 -13,1 -18,-2 -2,-2 6,-9 3,-9 -6,0 -11,4 -15,8 -3,2 -6,5 -6,9 -1,3 0,7 3,8 2,1 2,-4 3,-6 2,-2 2,-5 5,-6 1,-1 4,1 3,3 0,3 -6,5 -5,7 0,3 5,0 7,0 z m -27,-1 c -4,1 -2,10 0,13 2,3 8,1 8,-1 0,-5 -3,-13 -8,-12 z" />
  </g>
</svg>
